# Blender v2.76 (sub 0) OBJ File: 'Hyperspace.blend'
# www.blender.org
mtllib asteroid_m.mtl
o Asteroid_M_1_Icosphere.002
v -30.234472 -0.144626 -0.407381
v -28.681581 2.101819 -2.178826
v -30.765572 0.802574 2.450757
v -31.902496 4.832382 -1.101688
v -28.106585 1.421096 -0.785565
v -29.090691 0.661059 1.914089
v -28.284437 3.224672 -1.560590
v -28.458012 4.255291 1.056203
v -31.784740 0.203782 -0.085126
v -30.999401 0.489081 -1.389076
v -31.142040 4.554869 2.001775
v -31.089052 2.966441 -2.531661
v -30.205908 5.453261 -0.721806
v -32.999760 2.423072 1.171610
v -31.675642 1.353737 -2.047010
v -31.506346 0.973996 -1.887600
v -33.157513 1.005054 0.031044
v -32.914989 0.683434 -0.043448
v -29.199913 -0.377293 -0.131057
v -29.049793 0.347049 -1.328320
v -29.551949 0.138399 -1.226278
v -30.537464 -0.276989 0.896892
v -30.552338 -0.053742 1.205633
v -32.291553 0.466282 1.224138
v -30.159435 0.873706 -2.181458
v -32.685001 0.952268 -1.157988
v -32.927666 3.932281 0.589079
v -32.159878 2.343724 2.475270
v -33.241291 2.605604 -0.104757
v -32.479614 4.714021 -0.159018
v -31.986492 0.503568 1.651930
v -32.325344 0.796914 1.469107
v -33.104679 1.240269 -0.844568
v -32.924809 1.375773 -1.277179
v -28.137930 1.123932 1.192451
v -28.272947 3.149343 1.703220
v -28.534847 2.575889 1.932369
v -29.418493 2.845477 2.810185
v -28.606609 -0.195597 -0.110139
v -28.975401 -0.264382 0.406485
v -31.592890 1.942041 2.806858
v -31.837683 2.768084 2.722902
v -29.743618 3.647488 2.807779
v -29.037579 3.562331 2.466941
v -32.353001 4.729007 0.694450
v -28.251600 4.796091 -0.437035
v -27.721638 3.373300 0.189794
v -27.700466 3.089552 -0.282539
v -29.462173 5.624331 0.387989
v -28.699139 5.045215 0.612863
v -27.750959 1.455999 0.456414
v -27.844755 1.973472 1.010642
v -29.416969 5.469486 1.651226
v -29.509907 3.756260 -2.923520
v -29.991524 3.957439 -3.011764
v -30.224873 1.338709 -2.454487
v -29.663584 1.205824 -2.410578
v -28.172245 4.421622 -0.913985
v -28.585995 4.884533 -0.943074
v -30.659487 4.584223 -2.356929
v -30.848110 3.920582 -2.708913
v -31.492605 5.599747 -0.208143
v -29.815491 4.291621 -2.806225
v -29.846495 4.913680 -1.532917
v -32.718155 2.898856 -1.043396
v -29.898815 5.778171 1.133479
v -30.081804 5.418400 1.946341
v -31.000687 5.543690 1.134522
v -30.835522 5.823623 0.191954
v -31.746857 5.357738 0.623846
vt 0.224243 0.395961
vt 0.282519 0.343884
vt 0.293266 0.369969
vt 0.246088 0.415143
vt 0.330904 0.260758
vt 0.425907 0.212090
vt 0.381375 0.305919
vt 0.311292 0.350521
vt 0.339697 0.445049
vt 0.348130 0.395135
vt 0.381562 0.437541
vt 0.222817 0.478702
vt 0.277417 0.468925
vt 0.621134 0.609756
vt 0.668481 0.576635
vt 0.650530 0.639213
vt 0.394033 0.439499
vt 0.457726 0.440532
vt 0.421976 0.480933
vt 0.298861 0.412416
vt 0.362093 0.470804
vt 0.389625 0.739597
vt 0.487339 0.726698
vt 0.462874 0.770121
vt 0.277199 0.501392
vt 0.333288 0.493877
vt 0.352582 0.498216
vt 0.370806 0.478417
vt 0.381426 0.514456
vt 0.312395 0.856838
vt 0.201041 0.677444
vt 0.351660 0.732884
vt 0.653760 0.645299
vt 0.774399 0.778694
vt 0.640803 0.744572
vt 0.438981 0.520725
vt 0.283687 0.246768
vt 0.325862 0.213534
vt 0.424822 0.153428
vt 0.243505 0.065994
vt 0.449825 0.000091
vt 0.586393 0.889156
vt 0.506425 0.999909
vt 0.326393 0.918177
vt 0.000091 0.615473
vt 0.212179 0.502937
vt 0.121556 0.420393
vt 0.194144 0.472678
vt 0.566039 0.838367
vt 0.614682 0.836659
vt 0.359569 0.390767
vt 0.420205 0.378822
vt 0.580246 0.157817
vt 0.558043 0.245080
vt 0.177422 0.102963
vt 0.196551 0.291338
vt 0.017554 0.275150
vt 0.726577 0.957064
vt 0.339727 0.509629
vt 0.278231 0.519949
vt 0.481965 0.437566
vt 0.461445 0.521359
vt 0.390563 0.426976
vt 0.458674 0.412760
vt 0.636497 0.259553
vt 0.638873 0.419408
vt 0.550410 0.513066
vt 0.497927 0.545056
vt 0.679485 0.999909
vt 0.500061 0.801106
vt 0.831245 0.608538
vt 0.631146 0.542496
vt 0.597388 0.729522
vt 0.000645 0.555255
vt 0.365432 0.856530
vt 0.446315 0.536177
vt 0.503945 0.583700
vt 0.489609 0.560647
vt 0.509379 0.562977
vt 0.373902 0.661975
vt 0.354695 0.580047
vt 0.610640 0.631011
vt 0.404632 0.678813
vt 0.487181 0.561375
vt 0.453418 0.602265
vt 0.470467 0.621285
vt 0.386013 0.532170
vt 0.415819 0.579671
vt 0.370439 0.527998
vt 0.786145 0.519747
vt 0.505275 0.568508
vn 0.491200 -0.643600 -0.586900
vn 0.659800 -0.738200 -0.140000
vn 0.119200 -0.982300 -0.144100
vn 0.052000 -0.845600 -0.531200
vn 0.767100 -0.392000 0.507800
vn 0.706600 -0.118700 0.697600
vn 0.434800 -0.562900 0.702900
vn 0.413100 -0.841500 0.348200
vn -0.339100 -0.925000 -0.171500
vn -0.134700 -0.975900 0.171600
vn -0.582100 -0.748800 0.316800
vn -0.066000 -0.681400 -0.728900
vn -0.225500 -0.850500 -0.475100
vn 0.128300 0.978900 0.159000
vn -0.048200 0.702200 0.710300
vn 0.515700 0.704300 0.487800
vn -0.758200 -0.382900 0.527600
vn -0.735600 -0.024400 0.676900
vn -0.909300 0.002600 0.416000
vn -0.192200 -0.935800 -0.295400
vn -0.648600 -0.760200 -0.036600
vn -0.252300 0.743900 -0.618900
vn 0.075800 0.912000 -0.403100
vn 0.187000 0.868100 -0.459800
vn -0.302000 -0.653300 -0.694200
vn -0.515000 -0.695900 -0.500500
vn -0.907200 -0.294200 -0.300500
vn -0.922900 -0.370400 0.105100
vn -0.984200 0.139000 -0.109700
vn -0.070800 0.201200 -0.977000
vn -0.509100 -0.030500 -0.860100
vn -0.526800 0.225600 -0.819500
vn 0.825800 0.408400 0.389000
vn 0.741400 0.646800 0.178900
vn -0.913600 0.362400 0.184300
vn 0.957400 -0.282400 0.060400
vn 0.913600 -0.059700 0.402100
vn 0.818600 0.164000 0.550400
vn 0.958400 0.237700 0.157800
vn 0.838900 0.379400 -0.390100
vn 0.850600 0.082900 -0.519200
vn 0.461000 0.133900 -0.877200
vn -0.127400 -0.339900 -0.931800
vn 0.698800 -0.195500 -0.688000
vn 0.259100 -0.454900 -0.852000
vn 0.523400 0.756500 -0.392200
vn 0.788500 0.614000 -0.035000
vn -0.042700 -0.877300 0.478000
vn -0.026900 -0.579200 0.814700
vn 0.624000 0.254700 0.738700
vn 0.369500 -0.068800 0.926700
vn 0.981000 0.055500 -0.185500
vn 0.876900 -0.284000 -0.387800
vn -0.734900 -0.145300 -0.662300
vn -0.446700 -0.256500 -0.857100
vn -0.448700 0.240900 0.860600
vn -0.718700 0.594400 0.360500
vn -0.439300 -0.670500 0.597800
vn -0.302800 -0.240200 0.922300
vn 0.115300 0.301000 0.946600
vn -0.438600 0.506700 0.742200
vn -0.396400 0.810100 0.431900
vn -0.571000 0.764300 0.299700
vn 0.380700 0.917800 -0.112400
vn 0.211700 0.660800 -0.720000
vn -0.808500 0.553800 -0.199000
vn -0.398900 0.885200 -0.239200
vn -0.121100 0.990700 -0.062100
vn -0.592600 0.594800 -0.543100
vn -0.788200 0.230400 -0.570600
usemtl None
s 1
f 20/1/1 39/2/2 19/3/3 21/4/4
f 35/5/5 37/6/6 6/7/7
f 40/8/8 35/5/5 6/7/7
f 9/9/9 22/10/10 24/11/11
f 25/12/12 21/4/4 10/13/13
f 66/14/14 67/15/15 53/16/16
f 32/17/17 28/18/18 14/19/19
f 1/20/20 9/9/9 10/13/13
f 9/9/9 24/11/11 18/21/21
f 60/22/22 13/23/23 64/24/24
f 25/12/12 10/13/13 16/25/25
f 10/13/13 9/9/9 26/26/26
f 19/3/3 1/20/20 21/4/4
f 33/27/27 17/28/28 29/29/29
f 55/30/30 12/31/31 61/32/32
f 53/33/16 8/34/33 50/35/34
f 17/28/28 14/19/19 29/29/29
f 28/18/18 27/36/35 14/19/19
f 51/37/36 52/38/37 35/5/5
f 36/39/38 47/40/39 8/41/33
f 58/42/40 7/43/41 54/44/42
f 55/45/30 56/46/43 12/31/31
f 2/47/44 20/1/1 57/48/45
f 58/42/40 59/49/46 46/50/47
f 9/9/9 18/21/21 26/26/26
f 23/51/48 6/7/7 3/52/49
f 1/20/20 22/10/10 9/9/9
f 36/39/38 8/41/33 44/53/50
f 6/7/7 37/6/6 38/54/51
f 48/55/52 5/56/53 7/57/41
f 6/7/7 38/54/51 3/52/49
f 8/34/33 46/50/47 50/35/34
f 47/58/39 46/50/47 8/34/33
f 51/37/36 5/56/53 48/55/52
f 5/56/53 2/47/44 7/57/41
f 1/20/20 19/3/3 22/10/10
f 21/4/4 1/20/20 10/13/13
f 5/56/53 20/1/1 2/47/44
f 33/27/27 34/59/54 26/26/26
f 15/60/55 56/46/43 25/12/12 16/25/25
f 26/26/26 34/59/54 15/60/55 16/25/25
f 25/12/12 57/48/45 20/1/1 21/4/4
f 22/10/10 19/3/3 40/8/8 23/51/48
f 10/13/13 26/26/26 16/25/25
f 17/28/28 33/27/27 26/26/26 18/21/21
f 27/36/35 28/18/18 42/61/56 45/62/57
f 23/51/48 40/8/8 6/7/7
f 39/2/2 51/37/36 35/5/5 40/8/8
f 52/38/37 47/40/39 36/39/38
f 32/17/17 17/28/28 18/21/21 24/11/11
f 32/17/17 14/19/19 17/28/28
f 24/11/11 22/10/10 23/51/48 31/63/58
f 23/51/48 3/52/49 31/63/58
f 31/63/58 32/17/17 24/11/11
f 5/56/53 39/2/2 20/1/1
f 39/2/2 40/8/8 19/3/3
f 28/18/18 32/17/17 31/63/58 41/64/59
f 41/64/59 42/61/56 28/18/18
f 3/52/49 41/64/59 31/63/58
f 3/52/49 38/54/51 41/64/59
f 44/53/50 43/65/60 38/54/51
f 11/66/61 68/67/62 70/68/63 45/62/57
f 29/29/29 14/19/19 27/36/35
f 38/54/51 37/6/6 36/39/38 44/53/50
f 42/61/56 11/66/61 45/62/57
f 37/6/6 35/5/5 52/38/37 36/39/38
f 46/50/47 47/58/39 48/69/52 58/42/40
f 47/40/39 52/38/37 51/37/36 48/55/52
f 59/70/46 64/24/24 13/23/23
f 44/71/50 8/34/33 53/33/16
f 11/66/61 67/72/15 68/67/62
f 38/54/51 43/65/60 42/61/56 41/64/59
f 42/61/56 43/65/60 11/66/61
f 51/37/36 39/2/2 5/56/53
f 46/50/47 59/49/46 49/73/64 50/35/34
f 56/46/43 55/45/30 54/74/42 57/48/45
f 48/69/52 7/43/41 58/42/40
f 56/46/43 15/60/55 12/31/31
f 56/46/43 57/48/45 25/12/12
f 59/70/46 63/75/65 64/24/24
f 7/57/41 2/47/44 54/74/42
f 54/44/42 63/75/65 59/49/46 58/42/40
f 2/47/44 57/48/45 54/74/42
f 55/30/30 61/32/32 60/22/22 63/75/65
f 55/30/30 63/75/65 54/44/42
f 63/75/65 60/22/22 64/24/24
f 49/73/64 59/70/46 13/23/23
f 45/62/57 30/76/66 27/36/35
f 13/77/23 62/78/67 69/79/68
f 4/80/69 12/31/31 65/81/70
f 69/79/68 66/14/14 49/82/64 13/77/23
f 53/33/16 50/35/34 49/82/64
f 12/31/31 15/60/55 65/81/70
f 15/60/55 34/59/54 65/81/70
f 13/23/23 60/22/22 4/83/69
f 61/32/32 12/31/31 4/80/69
f 4/83/69 60/22/22 61/32/32
f 30/76/66 62/84/67 4/85/69
f 4/85/69 62/84/67 13/86/23
f 65/87/70 30/76/66 4/88/69
f 29/29/29 27/36/35 30/76/66 65/87/70
f 29/89/29 34/59/54 33/27/27
f 65/81/70 34/59/54 29/89/29
f 43/90/60 67/72/15 11/66/61
f 53/33/16 49/82/64 66/14/14
f 68/67/62 67/72/15 66/14/14 69/79/68
f 53/16/16 67/15/15 43/90/60 44/71/50
f 70/68/63 62/84/67 30/76/66 45/62/57
f 68/67/62 69/91/68 62/78/67 70/68/63
