# Blender v2.76 (sub 0) OBJ File: 'Hyperspace.blend'
# www.blender.org
mtllib asteroid_s.mtl
o Asteroid_S_1_Icosphere.003
v -37.831097 3.163028 1.167390
v -35.966179 2.852551 1.155524
v -38.549145 3.404059 -0.609919
v -37.391281 1.374055 -0.957535
v -36.359009 3.841901 0.634365
v -37.730602 4.085616 -0.344497
v -35.691425 3.207035 0.311894
v -36.006306 3.046375 -1.416707
v -38.504177 2.533117 0.901516
v -37.543598 2.303748 1.522192
v -38.506660 2.735504 -1.011150
v -36.523102 1.665354 0.796229
v -38.395931 1.798432 -0.721374
v -37.301666 1.656508 1.240876
v -38.622677 1.836876 0.477930
v -37.447445 3.786099 0.603682
v -36.952721 3.205909 1.438213
v -38.561840 3.517026 0.516099
v -38.799538 2.539846 0.018521
v -36.580109 2.287046 1.585877
v -38.066223 1.491267 0.968160
v -38.155136 1.422018 0.135986
v -36.884689 4.179666 -0.091416
v -36.875202 4.036011 -1.006947
v -37.349815 3.517277 -1.335943
v -36.556076 2.828451 -1.690990
v -37.800095 2.237201 -1.176278
v -35.661068 3.189004 -0.478000
v -36.017204 3.853986 -0.420304
v -35.721684 2.107141 0.332151
v -35.765514 2.444182 -0.830845
v -36.422146 2.247103 -1.417068
v -37.263611 1.176554 0.038293
v -36.405109 1.379374 -0.468916
vt 0.339697 0.445049
vt 0.348130 0.395135
vt 0.381562 0.437541
vt 0.212179 0.502937
vt 0.278231 0.519949
vt 0.201041 0.677444
vt 0.298861 0.412416
vt 0.277417 0.468925
vt 0.389625 0.739597
vt 0.351660 0.732884
vt 0.373902 0.661975
vt 0.638873 0.419408
vt 0.511728 0.554020
vt 0.461445 0.521359
vt 0.339727 0.509629
vt 0.354695 0.580047
vt 0.333288 0.493877
vt 0.370806 0.478417
vt 0.421976 0.480933
vt 0.381426 0.514456
vt 0.424822 0.153428
vt 0.243505 0.065994
vt 0.449825 0.000091
vt 0.196551 0.291338
vt 0.282519 0.343884
vt 0.224243 0.395961
vt 0.404632 0.678813
vt 0.121556 0.420393
vt 0.194144 0.472678
vt 0.000645 0.555255
vt 0.381375 0.305919
vt 0.558043 0.245080
vt 0.420205 0.378822
vt 0.726577 0.957064
vt 0.614682 0.836659
vt 0.774399 0.778694
vt 0.283687 0.246768
vt 0.177422 0.102963
vt 0.017554 0.275150
vt 0.293266 0.369969
vt 0.000091 0.615473
vt 0.370439 0.527998
vt 0.352582 0.498216
vt 0.246088 0.415143
vt 0.458674 0.412760
vt 0.390563 0.426976
vt 0.394033 0.439499
vt 0.457726 0.440532
vt 0.438981 0.520725
vt 0.481965 0.437566
vt 0.359569 0.390767
vt 0.311292 0.350521
vt 0.325862 0.213534
vt 0.330904 0.260758
vt 0.446315 0.536177
vt 0.277199 0.501392
vt 0.362093 0.470804
vt 0.222817 0.478702
vt 0.453418 0.602265
vt 0.396308 0.646965
vt 0.415819 0.579671
vt 0.487181 0.561375
vt 0.378983 0.580607
vt 0.386013 0.532170
vt 0.627768 0.596319
vt 0.425907 0.212090
vt 0.679485 0.999909
vt 0.506425 0.999909
vt 0.586393 0.889156
vt 0.365432 0.856530
vt 0.566039 0.838367
vt 0.326393 0.918177
vt 0.580246 0.157817
vt 0.831245 0.608538
vt 0.653760 0.645299
vt 0.503945 0.583700
vt 0.470467 0.621285
vt 0.640803 0.744572
vn -0.763300 0.019800 0.645700
vn -0.718600 0.580500 0.382900
vn -0.998900 -0.043700 -0.014000
vn 0.353900 -0.258900 0.898700
vn 0.052400 -0.723300 0.688500
vn 0.452100 -0.787500 0.418700
vn -0.377300 0.464100 0.801400
vn -0.293800 -0.096700 0.951000
vn 0.875800 -0.439800 0.198800
vn 0.498600 -0.839200 -0.217300
vn -0.717200 0.014200 -0.696700
vn 0.115900 0.044400 -0.992200
vn -0.323900 -0.279000 -0.904000
vn -0.419800 -0.711500 0.563400
vn 0.031600 -0.996600 0.075900
vn -0.864700 -0.446900 0.229300
vn -0.677100 -0.542900 -0.496700
vn -0.481200 -0.875600 -0.041800
vn 0.079100 0.825900 -0.558200
vn 0.647400 0.748800 -0.141800
vn 0.648300 0.215900 -0.730100
vn 0.381400 0.792400 0.476000
vn -0.175000 0.841300 0.511500
vn 0.027600 0.504300 0.863100
vn 0.877300 -0.310700 -0.365700
vn 0.733100 0.144600 0.664500
vn -0.358100 0.926100 -0.118500
vn -0.262400 0.471800 -0.841700
vn -0.772300 0.504500 -0.386000
vn 0.959500 0.230000 -0.162200
vn 0.076800 0.988100 0.133200
vn 0.920900 0.312300 0.233300
vn -0.124800 -0.780800 -0.612200
vn 0.368100 -0.493800 -0.787800
usemtl None
s 1
f 9/1/1 18/2/2 19/3/3
f 20/4/4 14/5/5 12/6/6
f 1/7/7 9/1/1 10/8/8
f 30/9/9 12/10/6 34/11/10
f 11/12/11 26/13/12 27/14/13
f 14/5/5 21/15/14 33/16/15
f 10/8/8 9/1/1 21/17/14
f 15/18/16 13/19/17 22/20/18
f 24/21/19 29/22/20 8/23/21
f 5/24/22 16/25/23 17/26/24
f 31/27/25 30/9/9 34/11/10
f 2/28/26 20/29/4 30/30/9
f 1/7/7 18/2/2 9/1/1
f 6/31/27 25/32/28 3/33/29
f 29/34/20 28/35/30 8/36/21
f 23/37/31 5/24/22 29/38/20
f 5/24/22 2/28/26 7/39/32
f 1/7/7 16/40/23 18/2/2
f 30/41/9 20/4/4 12/6/6
f 5/24/22 17/26/24 2/28/26
f 33/16/15 21/15/14 22/42/18
f 2/28/26 17/26/24 20/29/4
f 21/43/14 15/18/16 22/20/18
f 17/44/24 1/7/7 10/8/8
f 3/33/29 11/45/11 19/46/3
f 19/47/3 11/48/11 13/19/17
f 13/49/17 11/50/11 27/14/13
f 18/51/2 3/33/29 19/46/3
f 18/51/2 16/52/23 6/31/27
f 3/33/29 25/32/28 11/45/11
f 23/53/31 29/22/20 24/21/19
f 23/37/31 16/25/23 5/24/22
f 18/51/2 6/31/27 3/33/29
f 16/52/23 23/54/31 6/31/27
f 27/14/13 4/55/33 13/49/17
f 29/38/20 5/24/22 7/39/32
f 10/8/8 21/17/14 14/56/5
f 9/1/1 15/57/16 21/17/14
f 7/39/32 2/28/26 30/30/9
f 20/58/4 10/8/8 14/56/5
f 32/59/34 34/60/10 4/61/33
f 4/55/33 26/62/12 32/59/34
f 26/62/12 4/55/33 27/14/13
f 33/63/15 22/64/18 4/61/33
f 12/6/6 14/5/5 33/16/15
f 34/11/10 12/6/6 33/16/15
f 9/1/1 19/3/3 15/57/16
f 34/60/10 33/63/15 4/61/33
f 11/12/11 25/65/28 26/13/12
f 22/20/18 13/49/17 4/55/33
f 31/27/25 34/60/10 32/59/34
f 6/31/27 24/66/19 25/32/28
f 23/54/31 24/66/19 6/31/27
f 29/67/20 7/68/32 28/69/30
f 30/70/9 31/71/25 28/69/30
f 19/47/3 13/19/17 15/18/16
f 16/40/23 1/7/7 17/44/24
f 20/58/4 17/44/24 10/8/8
f 28/69/30 7/68/32 30/72/9
f 24/21/19 8/23/21 25/73/28
f 25/74/28 8/36/21 26/75/12
f 32/59/34 26/76/12 8/77/21
f 28/35/30 31/71/25 8/78/21
f 8/77/21 31/27/25 32/59/34
