# Blender v2.76 (sub 0) OBJ File: 'Hyperspace.blend'
# www.blender.org
mtllib laser.mtl
o Pod_Laser_Gun_Cylinder.003
v 0.005478 8.851234 -0.592313
v 0.005478 8.851234 0.777659
v 0.164609 8.735617 -0.592313
v 0.164609 8.735617 0.777659
v 0.103827 8.548547 -0.592313
v 0.103827 8.548547 0.777659
v -0.092872 8.548547 -0.592313
v -0.092872 8.548547 0.777659
v -0.153655 8.735617 -0.592313
v -0.153655 8.735617 0.777659
v 0.005478 8.773628 -1.981986
v 0.005478 8.773628 -0.546928
v 0.090802 8.711636 -1.981986
v 0.090802 8.711636 -0.546928
v 0.058211 8.611330 -1.981986
v 0.058211 8.611330 -0.546928
v -0.047256 8.611330 -1.981986
v -0.047256 8.611330 -0.546928
v -0.079847 8.711636 -1.981986
v -0.079847 8.711636 -0.546928
v -0.232548 8.743544 0.574219
v -0.232548 8.743544 0.098167
v 0.243503 8.743544 0.574219
v 0.243503 8.743544 0.098167
v -0.005478 8.851234 -0.592313
v -0.005478 8.851234 0.777659
v -0.164609 8.735617 -0.592313
v -0.164609 8.735617 0.777659
v -0.103827 8.548547 -0.592313
v -0.103827 8.548547 0.777659
v 0.092872 8.548547 -0.592313
v 0.092872 8.548547 0.777659
v 0.153655 8.735617 -0.592313
v 0.153655 8.735617 0.777659
v -0.005478 8.773628 -1.981986
v -0.005478 8.773628 -0.546928
v -0.090802 8.711636 -1.981986
v -0.090802 8.711636 -0.546928
v -0.058211 8.611330 -1.981986
v -0.058211 8.611330 -0.546928
v 0.047256 8.611330 -1.981986
v 0.047256 8.611330 -0.546928
v 0.079847 8.711636 -1.981986
v 0.079847 8.711636 -0.546928
v 0.232548 8.743544 0.574219
v 0.232548 8.743544 0.098167
v -0.243503 8.743544 0.574219
v -0.243503 8.743544 0.098167
v -0.232548 8.345377 0.574807
v -0.232548 8.483475 0.670826
v -0.232548 8.483475 0.194775
v -0.232548 8.345377 0.393392
v 0.243503 8.483475 0.670826
v 0.243503 8.345377 0.574807
v 0.243503 8.345377 0.393392
v 0.243503 8.483475 0.194775
v 0.232548 8.483475 0.670826
v 0.232548 8.345377 0.574807
v 0.232548 8.345377 0.393392
v 0.232548 8.483475 0.194775
v -0.243503 8.345377 0.574807
v -0.243503 8.483475 0.670826
v -0.243503 8.483475 0.194775
v -0.243503 8.345377 0.393392
vt 0.000000 0.000000
vt 1.000000 0.000000
vt 1.000000 1.000000
vt 0.000000 1.000000
vt 0.500000 1.000000
vt 0.975528 0.654508
vt 0.793893 0.095491
vt 0.206107 0.095492
vt 0.024472 0.654509
vt 0.309459 0.000000
vt 0.690541 0.000000
vt 0.690541 1.000000
vt 0.309459 1.000000
vt 1.000000 0.653164
vt 0.000000 0.653164
vn 0.587800 0.809000 0.000000
vn 0.951100 -0.309000 0.000000
vn 0.000000 -1.000000 0.000000
vn 0.000000 0.000000 1.000000
vn -0.587800 0.809000 0.000000
vn -0.951100 -0.309000 0.000000
vn 0.000000 -0.000000 -1.000000
vn 1.000000 0.000000 0.000000
vn 0.000000 0.348200 0.937400
vn 0.000000 -0.348200 -0.937400
vn 0.000000 1.000000 0.000000
vn -1.000000 0.000000 0.000000
vn 0.000000 -0.821000 -0.570900
vn 0.000000 -0.570900 0.821000
usemtl None
s off
f 1/1/1 2/2/1 4/3/1 3/4/1
f 3/1/2 4/2/2 6/3/2 5/4/2
f 5/1/3 6/2/3 8/3/3 7/4/3
f 4/5/4 2/6/4 10/7/4 8/8/4 6/9/4
f 9/1/5 10/2/5 2/3/5 1/4/5
f 7/1/6 8/2/6 10/3/6 9/4/6
f 1/5/7 3/6/7 5/7/7 7/8/7 9/9/7
f 11/1/1 12/2/1 14/3/1 13/4/1
f 13/1/2 14/2/2 16/3/2 15/4/2
f 15/1/3 16/2/3 18/3/3 17/4/3
f 14/5/4 12/6/4 20/7/4 18/8/4 16/9/4
f 19/1/5 20/2/5 12/3/5 11/4/5
f 17/1/6 18/2/6 20/3/6 19/4/6
f 11/5/7 13/6/7 15/7/7 17/8/7 19/9/7
f 49/10/3 52/11/3 55/12/3 54/13/3
f 24/1/8 23/2/8 53/14/8 54/12/8 55/13/8 56/15/8
f 47/1/9 62/15/9 57/14/9 45/2/9
f 22/1/10 24/2/10 56/14/10 51/15/10
f 23/1/9 21/2/9 50/14/9 53/15/9
f 23/1/11 24/2/11 22/3/11 21/4/11
f 25/1/5 27/4/5 28/3/5 26/2/5
f 27/1/6 29/4/6 30/3/6 28/2/6
f 29/1/3 31/4/3 32/3/3 30/2/3
f 28/5/4 30/9/4 32/8/4 34/7/4 26/6/4
f 33/1/1 25/4/1 26/3/1 34/2/1
f 31/1/2 33/4/2 34/3/2 32/2/2
f 25/5/7 33/9/7 31/8/7 29/7/7 27/6/7
f 35/1/5 37/4/5 38/3/5 36/2/5
f 37/1/6 39/4/6 40/3/6 38/2/6
f 39/1/3 41/4/3 42/3/3 40/2/3
f 38/5/4 40/9/4 42/8/4 44/7/4 36/6/4
f 43/1/1 35/4/1 36/3/1 44/2/1
f 41/1/2 43/4/2 44/3/2 42/2/2
f 35/5/7 43/9/7 41/8/7 39/7/7 37/6/7
f 58/10/3 61/13/3 64/12/3 59/11/3
f 48/1/12 63/15/12 64/13/12 61/12/12 62/14/12 47/2/12
f 45/1/8 57/15/8 58/13/8 59/12/8 60/14/8 46/2/8
f 46/1/10 60/15/10 63/14/10 48/2/10
f 47/1/11 45/4/11 46/3/11 48/2/11
f 55/12/13 52/11/13 51/2/13 56/3/13
f 49/10/14 54/13/14 53/4/14 50/1/14
f 63/14/13 60/15/13 59/4/13 64/3/13
f 57/14/14 62/15/14 61/4/14 58/3/14
f 21/1/12 22/2/12 51/14/12 52/12/12 49/13/12 50/15/12
