# Blender v2.76 (sub 0) OBJ File: 'Hyperspace.blend'
# www.blender.org
mtllib ring_branched.mtl
o Ring_Branched_1_Cube.001
v -20.522163 15.994164 -11.224524
v -20.522163 15.994164 -10.331158
v -42.239822 16.030720 -11.224524
v -42.239822 16.030720 -10.331158
v -20.529728 14.647057 -10.331158
v -20.529728 14.647057 -11.224524
v -41.252888 14.683613 -10.331158
v -41.252888 14.683613 -11.224524
v -14.126836 9.091497 -11.224524
v -14.126836 9.091497 -10.331158
v -15.330294 9.116051 -10.331158
v -15.330294 9.116051 -11.224524
v -14.126836 -1.338190 -11.224524
v -14.126836 -1.338190 -10.331158
v -15.330294 -1.313638 -10.331158
v -15.330294 -1.313638 -11.224524
v -17.247307 -4.085034 -11.224524
v -17.247307 -4.085034 -10.331158
v -18.450764 -4.060483 -10.331158
v -18.450764 -4.060483 -11.224524
v -17.247307 -9.305288 -11.224524
v -17.247307 -9.305288 -10.331158
v -18.450764 -8.084040 -10.331158
v -18.450764 -8.084040 -11.224524
v -31.389956 14.898531 -10.331158
v -31.389956 14.898531 -11.224524
v -30.186499 14.923082 -11.224524
v -30.186499 14.923082 -10.331158
v -31.389956 10.274563 -10.331158
v -31.389956 10.274563 -11.224524
v -30.186499 10.299115 -11.224524
v -30.186499 10.299115 -10.331158
v -29.166140 7.869918 -10.331158
v -29.166140 7.869918 -11.224524
v -27.962683 7.894470 -11.224524
v -27.962683 7.894470 -10.331158
v -29.166140 -8.148134 -10.331158
v -29.166140 -8.148134 -11.224524
v -27.962683 -8.123583 -11.224524
v -27.962683 -8.123583 -10.331158
v -41.252888 -1.992791 -10.331158
v -35.443764 -8.080387 -10.331158
v -35.443764 -8.080389 -11.224524
v -41.252888 -1.992791 -11.224524
v -36.442207 -9.285398 -10.331158
v -42.245564 -3.190838 -10.331158
v -42.245567 -3.190838 -11.224524
v -36.442207 -9.285398 -11.224524
v -29.791252 15.074928 -10.876242
v -29.791252 15.074928 -10.686499
v -29.791252 10.450962 -10.876242
v -29.791252 10.450962 -10.686499
v -27.567436 8.046316 -10.876242
v -27.567436 8.046316 -10.686499
v -27.567436 -8.125174 -10.876242
v -27.567436 -8.125174 -10.686499
v -31.851595 14.693634 -10.673411
v -31.851595 14.693634 -10.886423
v -31.851595 10.069665 -10.673411
v -31.851595 10.069665 -10.886423
v -29.627779 7.665021 -10.673411
v -29.627779 7.665021 -10.886423
v -29.627779 -8.353031 -10.673411
v -29.627779 -8.353031 -10.886423
v -40.694828 14.138195 -10.684782
v -40.694828 14.138195 -10.885755
v -20.752056 14.103191 -10.684782
v -20.752056 14.103191 -10.885755
v -15.773844 8.807514 -10.684782
v -15.773844 8.807514 -10.885755
v -15.773844 -1.178421 -10.684782
v -15.773844 -1.178421 -10.885755
v -18.761545 -3.808395 -10.684782
v -18.761545 -3.808395 -10.885755
v -18.761545 -7.660761 -10.684782
v -18.761545 -7.660761 -10.885755
v -35.031540 -7.657264 -10.684782
v -35.031540 -7.657264 -10.885755
v -40.694828 -1.828677 -10.885755
v -40.694828 -1.828677 -10.684782
v -26.370880 14.404840 -11.444923
v -26.370880 14.404840 -10.110758
v -35.631458 14.441397 -11.444923
v -35.631458 14.441397 -10.110758
v -28.427319 16.571390 -11.444923
v -41.037033 14.441397 -11.444923
v -37.638893 14.404840 -11.444923
v -28.427319 16.571390 -10.110758
v -37.638893 14.404840 -10.110758
v -34.086830 16.591049 -11.444923
v -34.086830 16.591049 -10.110758
v -41.037033 14.441397 -10.110758
v -36.030090 16.571390 -11.444923
v -36.030090 16.571390 -10.110758
v -41.037033 12.529779 -11.444923
v -41.037033 12.529779 -10.110758
v -42.958908 14.664862 -10.110758
v -42.958908 14.664862 -11.444923
v -20.274406 16.487432 -11.322928
v -20.274406 16.487432 -10.230363
v -13.628493 9.314302 -11.322928
v -13.628493 9.314302 -10.230363
v -13.628493 -1.524046 -11.322928
v -13.628493 -1.524046 -10.230363
v -16.871231 -4.378518 -11.322928
v -16.871231 -4.378518 -10.230363
v -36.818237 -9.782646 -10.230363
v -42.848984 -3.449285 -10.230363
v -42.848984 -3.449285 -11.322928
v -36.818237 -9.782646 -11.322928
v -20.652872 15.421904 -11.322928
v -14.824953 9.131659 -11.322928
v -14.824953 -1.476460 -11.322928
v -17.981075 -4.277402 -11.322928
v -41.613514 -2.504992 -11.322928
v -35.752827 -8.512007 -11.322928
v -20.652872 15.421904 -10.227972
v -14.824953 9.131659 -10.227972
v -14.824953 -1.476460 -10.227972
v -17.981075 -4.277402 -10.227972
v -41.613514 -2.504992 -10.227972
v -35.752827 -8.512007 -10.227972
v -37.218353 16.487432 -11.322928
v -37.218353 16.487432 -10.230363
v -37.596821 15.421904 -11.322928
v -37.596821 15.421904 -10.227972
v -42.848984 14.640938 -10.230363
v -42.848984 14.640938 -11.322928
v -41.613514 15.585232 -11.322928
v -41.613514 15.585232 -10.227972
v -41.949837 16.588186 -10.110758
v -42.958908 15.581972 -10.110758
v -42.286354 15.838783 -10.110758
v -42.958908 15.581972 -11.444923
v -41.949837 16.588186 -11.444923
v -42.286354 15.838783 -11.444923
v -19.516005 -9.916779 -11.444923
v -19.516005 -9.916779 -10.110758
v -18.595490 -7.872504 -11.444923
v -18.595490 -7.872504 -10.110758
v -21.504173 -7.852845 -11.444923
v -21.504173 -7.852845 -10.110758
v -16.774422 -2.304986 -11.444923
v -16.774422 -2.304986 -10.110758
v -18.595490 -3.946570 -11.444923
v -18.595490 -3.946570 -10.110758
v -16.774422 -8.821039 -11.444923
v -17.906616 -9.938238 -11.444923
v -17.520123 -9.101265 -11.444923
v -17.906616 -9.938238 -10.110758
v -16.774422 -8.821039 -10.110758
v -17.520123 -9.101265 -10.110758
v -17.924679 -9.802223 -11.322928
v -16.871231 -8.713390 -11.322928
v -16.871231 -8.713390 -10.230363
v -17.924679 -9.802223 -10.230363
v -19.034508 -8.529058 -11.322928
v -17.981075 -7.440208 -11.322928
v -17.981075 -7.440208 -10.227972
v -19.034508 -8.529058 -10.227972
vn 0.001700 1.000000 0.000000
vn 0.000000 0.000000 -1.000000
vn 0.000000 0.000000 1.000000
vn -0.001000 -0.544800 0.838600
vn -0.390100 -0.366700 -0.844600
vn 0.733600 0.679600 0.000000
vn -0.607000 0.000000 -0.794700
vn 1.000000 0.000000 0.000000
vn 0.660700 -0.750600 0.000000
vn -0.430400 0.489000 -0.758700
vn -0.736900 0.000000 -0.676000
vn 0.668600 0.000000 0.743700
vn -0.590900 0.000000 -0.806800
vn -0.423900 -0.392100 -0.816400
vn 0.492200 0.455200 0.742000
vn 0.000100 0.624900 -0.780700
vn -0.001000 -1.000000 0.000000
vn -1.000000 0.000300 0.000000
vn 0.376300 0.362200 -0.852800
vn -0.724200 -0.689600 0.000000
vn 0.535300 0.000000 0.844700
vn 0.661100 0.000000 -0.750300
vn 0.486700 0.450100 -0.748600
vn 0.734200 0.679000 0.000000
vn -0.595600 0.000000 0.803300
vn -1.000000 0.000000 0.000000
vn -0.427400 -0.395200 0.813100
vn -0.734200 -0.679000 0.000000
vn 0.518900 0.000000 -0.854800
vn 0.388000 0.373600 0.842500
vn 0.717200 0.696900 0.000000
vn 0.000100 0.641200 0.767400
vn 0.000200 1.000000 0.000000
vn -0.751100 0.000000 0.660100
vn -0.441000 0.501000 0.744700
vn -0.660700 0.750600 0.000000
vn -0.623400 0.000000 0.781900
vn -0.402000 -0.377900 0.834000
vn -0.728600 -0.684900 0.000000
vn -0.000900 -0.528400 -0.849000
vn -0.001800 -1.000000 0.000000
vn 0.802900 -0.596200 0.000000
vn -0.812100 0.583500 0.000000
vn 0.003500 1.000000 0.000000
vn -0.003900 -1.000000 0.000000
vn -0.010800 -0.999900 0.000000
vn 0.725300 0.688400 0.000000
vn -0.743200 -0.669000 0.000000
vn 0.002200 0.000000 1.000000
vn -0.000000 -0.001900 1.000000
vn 0.001900 -0.002200 1.000000
vn 0.002000 0.000000 1.000000
vn 0.001000 1.000000 0.000000
vn 0.001800 0.001600 1.000000
vn -0.001100 -0.001000 1.000000
vn 0.000000 0.002200 1.000000
vn -0.942300 0.334700 0.000000
vn 0.000000 -1.000000 0.000000
vn 0.000000 1.000000 0.000000
vn -0.607300 0.794500 0.000000
vn -0.001900 0.000000 1.000000
vn 0.715800 0.698300 0.000000
vn -0.663800 0.747900 0.000000
vn -0.706100 0.708100 0.000000
vn 0.002800 1.000000 0.000000
vn -0.720200 -0.693800 0.000000
vn -0.013300 -0.999900 0.000000
vn 0.006800 1.000000 0.000000
vn -0.669600 0.742800 0.000000
vn 0.702400 -0.711800 0.000000
vn 0.718700 -0.695300 0.000000
vn 0.001000 -0.001000 1.000000
vn -0.718700 0.695300 0.000000
usemtl None
s off
f 2//1 1//1 3//1 4//1
f 1//2 6//2 8//2 3//2
f 5//3 2//3 4//3 7//3
f 65//4 67//4 5//4 7//4
f 68//5 6//5 12//5 70//5
f 1//6 2//6 10//6 9//6
f 6//2 1//2 9//2 12//2
f 2//3 5//3 11//3 10//3
f 70//7 12//7 16//7 72//7
f 10//3 11//3 15//3 14//3
f 12//2 9//2 13//2 16//2
f 9//8 10//8 14//8 13//8
f 22//3 23//3 42//3 45//3
f 7//3 4//3 46//3 41//3
f 13//9 14//9 18//9 17//9
f 72//10 16//10 20//10 74//10
f 14//3 15//3 19//3 18//3
f 16//2 13//2 17//2 20//2
f 74//11 20//11 24//11 76//11
f 18//3 19//3 23//3 22//3
f 20//2 17//2 21//2 24//2
f 17//8 18//8 22//8 21//8
f 50//12 28//12 32//12 52//12
f 26//2 27//2 31//2 30//2
f 28//3 25//3 29//3 32//3
f 58//13 26//13 30//13 60//13
f 60//14 30//14 34//14 62//14
f 52//15 32//15 36//15 54//15
f 30//2 31//2 35//2 34//2
f 32//3 29//3 33//3 36//3
f 54//12 36//12 40//12 56//12
f 34//2 35//2 39//2 38//2
f 36//3 33//3 37//3 40//3
f 62//13 34//13 38//13 64//13
f 76//16 24//16 43//16 78//16
f 3//2 8//2 44//2 47//2
f 21//17 22//17 45//17 48//17
f 4//18 3//18 47//18 46//18
f 24//2 21//2 48//2 43//2
f 78//19 43//19 44//19 79//19
f 46//20 47//20 48//20 45//20
f 43//2 48//2 47//2 44//2
f 41//3 46//3 45//3 42//3
f 65//21 7//21 41//21 80//21
f 35//22 53//22 55//22 39//22
f 53//8 54//8 56//8 55//8
f 31//23 51//23 53//23 35//23
f 51//24 52//24 54//24 53//24
f 27//22 49//22 51//22 31//22
f 49//8 50//8 52//8 51//8
f 33//25 61//25 63//25 37//25
f 61//26 62//26 64//26 63//26
f 29//27 59//27 61//27 33//27
f 59//28 60//28 62//28 61//28
f 25//25 57//25 59//25 29//25
f 57//26 58//26 60//26 59//26
f 8//29 66//29 79//29 44//29
f 66//8 65//8 80//8 79//8
f 42//30 77//30 80//30 41//30
f 77//31 78//31 79//31 80//31
f 23//32 75//32 77//32 42//32
f 75//33 76//33 78//33 77//33
f 19//34 73//34 75//34 23//34
f 73//26 74//26 76//26 75//26
f 15//35 71//35 73//35 19//35
f 71//36 72//36 74//36 73//36
f 11//37 69//37 71//37 15//37
f 69//26 70//26 72//26 71//26
f 5//38 67//38 69//38 11//38
f 67//39 68//39 70//39 69//39
f 8//40 6//40 68//40 66//40
f 66//41 68//41 67//41 65//41
f 93//42 94//42 89//42 87//42
f 83//43 84//43 91//43 90//43
f 83//2 90//2 85//2 81//2
f 88//44 85//44 90//44 91//44
f 83//45 81//45 82//45 84//45
f 86//46 87//46 89//46 92//46
f 132//26 134//26 98//26 97//26
f 85//47 88//47 82//47 81//47
f 82//3 88//3 91//3 84//3
f 134//2 136//2 86//2 95//2 98//2
f 89//3 94//3 131//3 133//3 92//3
f 92//3 133//3 132//3 97//3 96//3
f 95//48 96//48 97//48 98//48
f 86//2 136//2 135//2 93//2 87//2
f 86//8 92//8 96//8 95//8
f 99//6 100//6 102//6 101//6
f 101//8 102//8 104//8 103//8
f 103//9 104//9 106//9 105//9
f 153//2 110//2 116//2 157//2
f 105//8 106//8 155//8 154//8
f 108//20 109//20 110//20 107//20
f 106//49 120//49 159//49 155//49
f 103//2 105//2 114//2 113//2
f 101//2 103//2 113//2 112//2
f 110//2 109//2 115//2 116//2
f 99//2 101//2 112//2 111//2
f 105//2 154//2 158//2 114//2
f 156//50 160//50 122//50 107//50
f 104//51 119//51 120//51 106//51
f 102//52 118//52 119//52 104//52
f 160//53 157//53 116//53
f 100//54 117//54 118//54 102//54
f 107//55 122//55 121//55 108//55
f 115//2 109//2 128//2 129//2
f 117//56 100//56 124//56 126//56
f 124//57 123//57 125//57 126//57
f 111//58 117//58 126//58 125//58
f 100//59 99//59 123//59 124//59
f 99//2 111//2 125//2 123//2
f 129//60 128//60 127//60 130//60
f 108//61 121//61 130//61 127//61
f 109//26 108//26 127//26 128//26
f 121//8 115//8 129//8 130//8
f 114//8 120//8 159//8
f 114//26 158//26 159//26
f 122//53 160//53 116//53
f 115//62 122//62 116//62
f 115//62 121//62 122//62
f 120//63 113//63 114//63
f 119//63 113//63 120//63
f 112//8 119//8 113//8
f 112//8 118//8 119//8
f 111//6 118//6 112//6
f 111//6 117//6 118//6
f 131//3 132//3 133//3
f 134//2 135//2 136//2
f 131//64 135//64 134//64 132//64
f 94//65 93//65 135//65 131//65
f 137//66 138//66 142//66 141//66
f 137//67 148//67 150//67 138//67
f 140//68 139//68 141//68 142//68
f 147//2 149//2 139//2 145//2 143//2
f 140//3 152//3 151//3 144//3 146//3
f 145//69 146//69 144//69 143//69
f 139//26 140//26 146//26 145//26
f 150//3 152//3 140//3 142//3 138//3
f 151//8 147//8 143//8 144//8
f 147//2 148//2 149//2
f 150//3 151//3 152//3
f 147//70 151//70 150//70 148//70
f 137//2 141//2 139//2 149//2 148//2
f 154//71 155//71 156//71 153//71
f 153//2 157//2 158//2 154//2
f 155//72 159//72 160//72 156//72
f 159//73 158//73 157//73 160//73
f 153//17 156//17 107//17 110//17
