# Blender v2.76 (sub 0) OBJ File: 'Hyperspace2_textured.blend'
# www.blender.org
mtllib asteroid_small_1.mtl
o Asteroid_S_2_Icosphere.007
v 0.070166 -0.185950 -0.347367
v -0.110588 0.058194 -0.343236
v 0.307839 0.278979 -0.198650
v 0.411879 0.106326 -0.244104
v 0.038306 -0.274513 -0.100339
v -0.049397 -0.160223 -0.087759
v 0.181792 0.328329 -0.462137
v 0.277244 0.168926 -0.489873
v 0.179368 0.070336 -0.009886
v 0.271516 -0.121631 -0.037865
v 0.065322 -0.530791 0.865187
v -0.122830 -0.396862 0.719232
v -0.073998 -0.571590 0.470086
v -0.061370 -0.882558 0.491181
v -0.272974 -0.847787 0.606402
v -0.405754 0.510853 -0.578623
v -0.513382 0.741166 -0.549667
v -0.470142 0.610471 -0.804840
v 0.206918 0.824962 -0.460651
v -0.129351 0.517871 -0.548840
v 0.037171 0.636321 -0.778261
v -0.125536 0.941772 -0.759466
v -0.173744 1.102904 -0.451621
v 0.095620 1.058362 -0.431536
v -0.717889 -0.346283 -0.007969
v -0.743491 -0.121922 -0.098895
v -0.517866 -0.213747 0.030555
v -1.104383 -0.147073 0.494659
v -0.848143 -0.378770 0.220029
v -0.735201 -0.257368 0.460762
v -0.744889 0.045439 0.330554
v -1.019187 0.158946 0.178012
v -1.129297 0.080609 0.400676
v 0.614513 -0.385087 -0.339130
v 0.983084 -0.190609 -0.211772
v 0.869922 -0.374392 -0.045500
v 0.912368 -0.438724 -0.272520
v -1.154914 0.413736 0.058212
v -1.036067 0.162558 -0.124958
v -1.335760 0.307780 -0.088678
v -1.188813 0.161790 0.022195
v 0.495694 0.829423 0.384235
v 0.748837 0.824481 0.280129
v 0.743481 0.501417 0.416721
v 0.484946 0.281502 0.346555
v 0.500168 0.338120 0.044965
v 0.314079 0.650155 0.333346
v 0.912295 0.200405 0.082856
v 0.918317 0.465830 -0.033667
v 0.741039 0.288587 -0.084891
v -0.640628 0.280862 -0.253679
v -0.418315 0.226524 -0.336658
v -0.348045 0.492281 -0.189209
v -0.430221 0.538177 0.104268
v -0.336819 0.293349 0.181574
v -0.688519 0.324851 -0.031614
v 0.002528 0.421186 0.043956
v -0.052545 0.199873 -0.076293
v -0.097915 0.242872 0.142475
v -0.300277 -0.704637 0.786135
v 0.308264 -0.419310 0.584139
v 0.322315 -0.676079 0.602717
v 0.297201 -0.534889 0.779356
v -0.389768 0.094765 0.319169
v -0.313895 -0.118789 0.075439
v -0.353332 -0.142774 0.407238
v -0.201277 -0.063720 0.246524
v 0.071869 -0.821512 -0.268408
v -0.057052 -0.647780 -0.015499
v 0.017673 -0.580403 -0.335027
v 0.120460 -0.613244 -0.126327
v -0.113911 -0.199659 -0.799353
v 0.212168 -0.231894 -0.857659
v -0.067073 -0.329066 -1.015151
v 0.064920 -0.381648 -0.828035
v -0.110360 0.521648 0.863908
v 0.104382 0.508652 0.609972
v -0.095632 0.287223 0.762238
v 0.106323 0.403031 0.793892
vt 0.636344 0.880725
vt 0.619907 0.787117
vt 0.724201 0.733805
vt 0.724201 0.881808
vt 0.190030 0.873029
vt 0.129780 0.836501
vt 0.190030 0.759462
vt 0.950585 0.280982
vt 0.950585 0.443050
vt 0.881115 0.346197
vt 0.653817 0.152626
vt 0.568261 0.102545
vt 0.653817 0.004368
vt 0.832320 0.148279
vt 0.849147 0.000000
vt 0.906488 0.006880
vt 0.916810 0.148279
vt 0.102553 0.804176
vt 0.138396 0.685375
vt 0.538581 0.000000
vt 0.533977 0.142967
vt 0.510472 0.040708
vt 0.627453 0.197685
vt 0.154073 0.648619
vt 0.148956 0.541461
vt 0.208212 0.524627
vt 0.195010 0.648620
vt 0.967369 0.000000
vt 0.967369 0.124474
vt 0.916810 0.059189
vt 0.506494 0.715426
vt 0.506494 0.840374
vt 0.458036 0.761193
vt 0.909912 1.000000
vt 0.973091 0.898156
vt 0.973091 0.973950
vt 0.916723 0.913850
vt 0.975260 0.148279
vt 0.975260 0.263227
vt 0.925570 0.203478
vt 0.583012 0.224690
vt 0.647017 0.197685
vt 0.647017 0.280795
vt 0.359231 0.533149
vt 0.221636 0.442070
vt 0.315797 0.382498
vt 0.208527 0.330126
vt 0.277041 0.280982
vt 0.000000 0.727114
vt 0.102553 0.685375
vt 0.102553 0.803056
vt 0.017245 0.836690
vt 0.896390 0.655922
vt 0.817996 0.632664
vt 0.812612 0.540077
vt 0.896390 0.486203
vt 0.072783 0.877972
vt 0.506494 0.303269
vt 0.506494 0.452724
vt 0.448725 0.523016
vt 0.371371 0.500478
vt 0.359231 0.338481
vt 0.427624 0.280982
vt 0.359231 0.314004
vt 0.456291 0.895558
vt 0.359231 0.880381
vt 0.456291 0.765992
vt 0.208527 0.017764
vt 0.208527 0.201480
vt 0.120556 0.169373
vt 0.661527 0.443969
vt 0.692388 0.295426
vt 0.783296 0.280982
vt 0.783296 0.434054
vt 0.000000 0.149681
vt 0.109253 0.000000
vt 0.832320 0.182728
vt 0.743621 0.155713
vt 0.737530 0.055894
vt 0.832320 0.000000
vt 0.763473 0.214875
vt 0.834218 0.787761
vt 0.902996 0.724427
vt 0.902996 0.898156
vt 0.013552 0.241642
vt 0.151675 0.274743
vt 0.151675 0.448293
vt 0.092176 0.524627
vt 0.012504 0.491371
vt 0.000000 0.302146
vt 0.070442 0.241642
vt 0.563627 0.304751
vt 0.661527 0.280982
vt 0.661527 0.396284
vt 0.834218 0.873321
vt 0.729262 0.815296
vt 0.724201 0.724427
vt 0.834218 0.753390
vt 0.593814 0.486203
vt 0.506494 0.378555
vt 0.737530 0.278383
vt 0.659196 0.239079
vt 0.653817 0.155040
vt 0.737530 0.126662
vt 0.507217 0.291088
vt 0.710138 0.000000
vt 0.832320 0.162657
vt 0.925570 0.148279
vt 0.925570 0.273468
vt 0.630025 0.486203
vt 0.630025 0.622435
vt 0.581566 0.707654
vt 0.516677 0.715426
vt 0.506494 0.572205
vt 0.563865 0.494759
vt 0.208527 0.966034
vt 0.293678 0.870787
vt 0.293678 0.988614
vt 0.909912 0.898156
vt 0.909912 0.991469
vt 0.834218 0.937737
vt 0.503870 0.523016
vt 0.503870 0.647160
vt 0.450289 0.593781
vt 0.956118 0.724427
vt 0.956118 0.846930
vt 0.902996 0.781530
vt 0.000000 0.985379
vt 0.031355 0.877972
vt 0.087715 0.985379
vt 0.960060 0.486203
vt 0.960060 0.616796
vt 0.896390 0.580618
vt 0.200368 0.241642
vt 0.200368 0.403646
vt 0.151675 0.318507
vt 0.583012 0.275130
vt 0.510472 0.259184
vt 0.583012 0.197685
vt 0.375274 0.028580
vt 0.375274 0.201627
vt 0.309862 0.280982
vt 0.222273 0.252164
vt 0.208527 0.064168
vt 0.285969 0.000000
vt 0.801158 0.873322
vt 0.817815 0.974614
vt 0.724201 0.974614
vt 0.724201 0.544730
vt 0.630025 0.602465
vt 0.637449 0.486203
vt 0.360018 0.755883
vt 0.435629 0.694986
vt 0.450289 0.765992
vt 0.724201 0.624863
vt 0.807816 0.570058
vt 0.812612 0.724427
vt 0.080270 0.685375
vt 0.000000 0.650383
vt 0.055422 0.550209
vt 0.636076 0.705758
vt 0.510472 0.014262
vt 0.510472 0.161342
vt 0.457436 0.236135
vt 0.386419 0.221478
vt 0.375274 0.063236
vt 0.438063 0.000000
vt 0.359231 0.598133
vt 0.450289 0.523016
vt 0.208527 0.870787
vt 0.240139 0.726466
vt 0.333258 0.713114
vt 0.333258 0.862081
vt 0.328629 0.713114
vt 0.208527 0.568310
vt 0.328629 0.533149
vt 1.000000 0.384693
vt 1.000000 0.481505
vt 0.950585 0.432204
vt 0.742171 0.486203
vt 0.812612 0.495108
vt 0.614079 0.861635
vt 0.506494 0.891714
vt 0.524754 0.739036
vt 0.614079 0.715426
vt 0.148956 0.524627
vt 0.148956 0.660059
vt 0.881115 0.436687
vt 0.783296 0.301128
vt 0.881115 0.280982
vt 0.582266 0.987929
vt 0.506494 0.892669
vt 0.582266 0.891714
vt 0.359231 0.950263
vt 0.434127 0.895558
vt 0.434127 0.991626
vt 0.960008 0.715195
vt 0.896390 0.722574
vt 0.915173 0.642694
vt 0.201537 0.403646
vt 0.201537 0.523154
vt 0.151675 0.464976
vt 0.960008 0.616796
vt 0.102553 0.982941
vt 0.141470 0.873029
vt 0.193157 0.982941
vt 0.506299 0.895558
vt 0.506299 0.989687
vt 0.434127 0.939734
vt 0.350125 0.870787
vt 0.350125 0.993357
vt 0.293678 0.940004
vt 0.997461 0.280982
vt 0.997461 0.384693
vt 0.950585 0.343214
vt 0.704312 0.881808
vt 0.704312 0.983192
vt 0.619907 0.904436
vn 0.998700 -0.050100 0.006600
vn 0.614200 -0.509300 0.602700
vn -0.074100 -0.754400 -0.652100
vn 0.488700 -0.011700 -0.872300
vn -0.186300 -0.926200 0.327600
vn -0.047100 0.404200 0.913400
vn -0.925200 0.226900 -0.304100
vn -0.811800 -0.252900 0.526300
vn 0.359600 0.841900 0.402400
vn -0.092000 0.824000 -0.559100
vn 0.543900 -0.061300 -0.836800
vn 0.171000 -0.532600 0.828900
vn -0.805400 -0.418400 -0.419900
vn -0.170000 0.900200 0.400900
vn 0.236000 0.551700 -0.799900
vn 0.070300 0.313500 0.947000
vn 0.424300 -0.869100 -0.253900
vn -0.999500 -0.023600 0.017500
vn -0.629200 -0.682900 0.371200
vn 0.476900 -0.867400 -0.141900
vn 0.296500 -0.343700 0.891000
vn 0.803600 0.228100 -0.549800
vn 0.724800 0.684200 0.080600
vn -0.064600 0.875700 0.478500
vn -0.777900 0.589700 0.216700
vn -0.655200 -0.068000 -0.752300
vn -0.161200 -0.091600 -0.982600
vn 0.626200 0.274300 0.729800
vn -0.598400 0.412900 0.686500
vn -0.043600 -0.614600 0.787700
vn -0.901100 0.048600 -0.430900
vn -0.575500 -0.660700 -0.481900
vn 0.315600 -0.815900 -0.484400
vn 0.871900 -0.226800 -0.433800
vn 0.375200 0.840000 -0.391900
vn -0.165000 0.871800 -0.461200
vn -0.954700 0.079000 0.286900
vn -0.459800 0.383700 -0.800800
vn -0.576400 -0.711900 -0.401100
vn 0.733300 0.230200 -0.639700
vn 0.784100 -0.500800 -0.366400
vn 0.464800 -0.770800 0.435600
vn 0.089800 -0.274500 0.957400
vn 0.047400 0.831000 0.554100
vn 0.316500 0.944000 0.093200
vn -0.028700 0.185000 -0.982300
vn 0.884700 0.107900 0.453400
vn -0.598700 -0.799800 0.043600
vn 0.893300 -0.235100 0.383100
vn -0.200000 -0.837900 -0.507800
vn 0.164100 0.798700 -0.578900
vn -0.737300 0.444100 0.509100
vn -0.513400 0.725300 0.458700
vn 0.926100 -0.338100 -0.167300
vn 0.656000 0.301600 0.691900
vn 0.162600 0.373100 0.913400
vn -0.687800 -0.385100 0.615400
vn -0.445300 -0.894800 0.031800
vn 0.372400 -0.858300 -0.353000
vn -0.481100 0.089800 -0.872000
vn 0.449600 0.716500 -0.533300
vn -0.658700 0.752400 0.006400
vn 0.272900 -0.814100 -0.512600
vn 0.144200 0.433800 -0.889400
vn 0.967000 0.136000 -0.215100
vn 0.803600 0.246800 0.541600
vn -0.000600 0.514000 0.857800
vn -0.096100 -0.794400 0.599700
vn -0.376300 0.531700 -0.758700
vn -0.639700 0.667600 0.381000
vn -0.860000 -0.487200 -0.151300
vn 0.467400 0.242100 0.850200
vn 0.724800 -0.513000 -0.459700
vn -0.221900 0.872300 -0.435700
vn -0.940000 -0.336700 -0.055400
vn 0.542600 0.838900 0.041600
vn 0.595700 -0.567200 -0.568700
vn -0.857200 0.262900 -0.442700
vn -0.461300 -0.417600 0.782900
usemtl Material.002
s 1
f 4/1/1 10/2/2 1/3/3
f 8/4/4 4/1/1 1/3/3
f 10/5/2 5/6/5 1/7/3
f 9/8/6 2/9/7 6/10/8
f 9/11/6 3/12/9 2/13/7
f 2/14/7 7/15/10 8/16/4 1/17/3
f 5/6/5 6/18/8 2/19/7 1/7/3
f 7/20/10 3/12/9 4/21/1 8/22/4
f 3/12/9 9/11/6 10/23/2 4/21/1
f 5/24/5 10/25/2 9/26/6 6/27/8
f 2/13/7 3/12/9 7/20/10
f 69/28/11 70/29/12 71/30/13
f 70/31/12 69/32/11 68/33/14
f 66/34/15 65/35/16 64/36/17
f 65/35/16 66/34/15 67/37/18
f 64/38/17 65/39/16 67/40/18
f 66/41/15 64/42/17 67/43/18
f 61/44/19 12/45/20 13/46/21
f 12/45/20 60/47/22 15/48/23 13/46/21
f 13/49/21 14/50/24 62/51/25 61/52/19
f 61/53/19 63/54/26 11/55/27 12/56/20
f 61/52/19 62/51/25 63/57/26
f 60/58/22 11/59/27 63/60/26 62/61/25 14/62/24 15/63/23
f 15/48/23 14/64/24 13/46/21
f 12/65/20 11/66/27 60/67/22
f 18/68/28 21/69/29 22/70/30
f 21/71/29 19/72/31 24/73/32 22/74/30
f 22/70/30 23/75/33 17/76/34 18/68/28
f 18/77/28 16/78/35 20/79/36 21/80/29
f 18/77/28 17/81/34 16/78/35
f 21/82/29 20/83/36 19/84/31
f 24/85/32 23/75/33 22/70/30
f 19/86/31 20/87/36 16/88/35 17/89/34 23/90/33 24/91/32
f 27/92/37 30/93/38 31/94/39
f 30/95/38 28/96/40 33/97/41 31/98/39
f 31/94/39 32/99/42 26/100/43 27/92/37
f 27/101/37 25/102/44 29/103/45 30/104/38
f 27/92/37 26/100/43 25/105/44
f 30/104/38 29/103/45 28/106/40
f 33/107/41 32/108/42 31/109/39
f 28/110/40 29/111/45 25/112/44 26/113/43 32/114/42 33/115/41
f 36/116/46 34/117/47 35/118/48
f 40/119/49 38/120/50 41/121/51
f 38/122/50 39/123/52 41/124/51
f 39/125/52 40/126/49 41/127/51
f 40/128/49 39/129/52 38/130/50
f 34/131/47 36/132/46 37/133/53
f 35/134/48 34/135/47 37/136/53
f 36/137/46 35/138/48 37/139/53
f 47/140/54 46/141/55 50/142/56 49/143/57 43/144/58 42/145/59
f 42/146/59 43/147/58 44/148/60
f 45/149/61 46/150/55 47/151/54
f 48/152/62 49/153/57 50/154/56
f 54/155/63 55/156/64 56/157/65
f 51/158/66 52/159/67 53/160/68
f 48/3/62 50/161/56 46/150/55 45/149/61
f 56/162/65 55/163/64 59/164/69 58/165/70 52/166/67 51/167/66
f 44/168/60 43/169/58 49/153/57 48/152/62
f 45/170/61 47/171/54 42/172/59 44/173/60
f 48/174/62 45/175/61 44/176/60
f 57/177/71 58/178/70 59/179/69
f 57/180/71 59/181/69 55/156/64 54/155/63
f 53/182/68 52/183/67 58/184/70 57/185/71
f 54/186/63 56/187/65 51/158/66 53/160/68
f 57/188/71 54/189/63 53/190/68
f 68/191/14 69/192/11 71/193/13
f 70/194/12 68/195/14 71/196/13
f 74/197/72 72/198/73 75/199/74
f 72/200/73 73/201/75 75/202/74
f 73/203/75 74/197/72 75/199/74
f 74/204/72 73/205/75 72/206/73
f 78/207/76 76/208/77 79/209/78
f 76/210/77 77/211/79 79/212/78
f 77/213/79 78/214/76 79/215/78
f 78/216/76 77/217/79 76/218/77
