# Blender v2.76 (sub 0) OBJ File: 'Hyperspace2_textured.blend'
# www.blender.org
mtllib straight_ring_2.mtl
o Ring_Straight_2_Cube.003
v -0.000105 7.509581 -0.049519
v -0.000105 7.509582 0.055224
v 5.305140 5.312076 -0.049519
v 5.305140 5.312076 0.055224
v 7.502646 0.006826 -0.049519
v 7.502646 0.006828 0.055224
v 5.305140 -5.298421 -0.049519
v 5.305140 -5.298417 0.055224
v -0.000104 -7.495923 -0.049519
v -0.000105 -7.495923 0.055224
v -5.305351 -5.298417 -0.049519
v -5.305351 -5.298417 0.055224
v -7.502858 0.006828 -0.049519
v -7.502858 0.006828 0.055224
v -5.305351 5.312073 -0.049519
v -5.305350 5.312076 0.055224
v -0.000105 9.771588 -0.474658
v 6.904621 6.911557 -0.474658
v 6.904621 6.911557 0.480362
v -0.000105 9.771589 0.480362
v 9.764654 0.006826 -0.474658
v 9.764654 0.006828 0.480362
v 6.904621 -6.897902 -0.474658
v 6.904621 -6.897898 0.480362
v -0.000105 -9.757931 -0.474658
v -0.000105 -9.757931 0.480362
v -6.904831 -6.897898 -0.474658
v -6.904831 -6.897898 0.480362
v -9.764866 0.006828 -0.474658
v -9.764866 0.006828 0.480362
v -6.904831 6.911553 -0.474658
v -6.904831 6.911557 0.480362
v -0.000105 8.362415 -0.474658
v 5.908186 5.915122 -0.474658
v 5.908185 5.915121 0.480362
v -0.000105 8.362416 0.480362
v 8.355481 0.006826 -0.474658
v 8.355481 0.006828 0.480362
v 5.908186 -5.901466 -0.474658
v 5.908186 -5.901463 0.480362
v -0.000105 -8.348758 -0.474658
v -0.000105 -8.348758 0.480362
v -5.908396 -5.901462 -0.474658
v -5.908396 -5.901462 0.480362
v -8.355693 0.006828 -0.474658
v -8.355693 0.006828 0.480362
v -5.908396 5.915118 -0.474658
v -5.908396 5.915121 0.480362
v -0.237473 7.360642 0.590018
v -0.237473 10.765252 0.590018
v -0.237473 7.360642 -0.597149
v -0.237473 10.765252 -0.597149
v 0.253304 7.360642 0.590018
v 0.253304 10.765252 0.590018
v 0.253304 7.360642 -0.597149
v 0.253304 10.765252 -0.597149
v -0.237473 -10.769354 0.590018
v -0.237473 -7.364745 0.590018
v -0.237473 -10.769354 -0.597149
v -0.237473 -7.364745 -0.597149
v 0.253304 -10.769354 0.590018
v 0.253304 -7.364745 0.590018
v 0.253304 -10.769354 -0.597149
v 0.253304 -7.364745 -0.597149
v 7.350321 0.245891 0.590018
v 10.754930 0.245891 0.590018
v 7.350321 0.245891 -0.597149
v 10.754930 0.245891 -0.597149
v 7.350321 -0.244886 0.590018
v 10.754930 -0.244886 0.590018
v 7.350321 -0.244886 -0.597149
v 10.754930 -0.244886 -0.597149
v -10.696538 0.245891 0.590018
v -7.291929 0.245891 0.590018
v -10.696538 0.245891 -0.597149
v -7.291929 0.245891 -0.597149
v -10.696538 -0.244886 0.590018
v -7.291929 -0.244886 0.590018
v -10.696538 -0.244886 -0.597149
v -7.291929 -0.244886 -0.597149
v -7.420669 7.774874 0.590018
v -5.013246 5.367453 0.590018
v -7.420669 7.774874 -0.597149
v -5.013246 5.367453 -0.597149
v -7.767700 7.427843 0.590018
v -5.360278 5.020421 0.590018
v -7.767700 7.427843 -0.597149
v -5.360278 5.020421 -0.597149
v 5.330529 -5.088813 0.590018
v 7.737952 -7.496235 0.590018
v 5.330529 -5.088813 -0.597149
v 7.737952 -7.496235 -0.597149
v 4.983498 -5.435844 0.590018
v 7.390920 -7.843266 0.590018
v 4.983498 -5.435844 -0.597149
v 7.390920 -7.843266 -0.597149
v -5.032259 -5.370716 0.590018
v -7.439681 -7.778138 0.590018
v -5.032259 -5.370716 -0.597149
v -7.439681 -7.778138 -0.597149
v -5.379290 -5.023685 0.590018
v -7.786713 -7.431106 0.590018
v -5.379290 -5.023685 -0.597149
v -7.786713 -7.431106 -0.597149
v 7.743289 7.434313 0.590018
v 5.335867 5.026891 0.590018
v 7.743289 7.434313 -0.597149
v 5.335867 5.026891 -0.597149
v 7.396258 7.781344 0.590018
v 4.988835 5.373923 0.590018
v 7.396258 7.781344 -0.597149
v 4.988835 5.373923 -0.597149
v -0.000105 10.526809 -0.192426
v 7.438643 7.445579 -0.192426
v 7.438643 7.445579 0.198131
v -0.000105 10.526810 0.198131
v 10.519875 0.006825 -0.192426
v 10.519875 0.006828 0.198131
v 7.438643 -7.431924 -0.192426
v 7.438643 -7.431919 0.198131
v -0.000105 -10.513151 -0.192426
v -0.000105 -10.513151 0.198131
v -7.438852 -7.431919 -0.192426
v -7.438852 -7.431919 0.198131
v -10.520086 0.006828 -0.192426
v -10.520086 0.006828 0.198131
v -7.438852 7.445575 -0.192426
v -7.438852 7.445579 0.198131
v -0.000105 9.654500 -0.176234
v 6.821826 6.828763 -0.176234
v 6.821826 6.828763 0.181939
v -0.000105 9.654501 0.181939
v 9.647566 0.006826 -0.176234
v 9.647566 0.006828 0.181939
v 6.821826 -6.815108 -0.176234
v 6.821826 -6.815104 0.181939
v -0.000105 -9.640842 -0.176234
v -0.000105 -9.640842 0.181939
v -6.822037 -6.815104 -0.176234
v -6.822037 -6.815104 0.181939
v -9.647778 0.006828 -0.176234
v -9.647778 0.006828 0.181939
v -6.822037 6.828759 -0.176234
v -6.822037 6.828763 0.181939
vt 0.925635 0.813023
vt 0.902369 0.813023
vt 0.902369 0.646399
vt 0.925635 0.646399
vt 0.902369 0.475430
vt 0.925635 0.475430
vt 0.948901 0.475430
vt 0.948901 0.638872
vt 0.925635 0.638872
vt 0.948901 0.812321
vt 0.925635 0.812321
vt 0.879104 0.475430
vt 0.902369 0.646136
vt 0.879103 0.646136
vt 0.902369 0.813062
vt 0.879103 0.813062
vt 0.997448 0.475430
vt 1.000000 0.475430
vt 1.000000 0.608699
vt 0.970360 0.160245
vt 0.947095 0.160244
vt 0.947095 0.000000
vt 0.970360 0.000000
vt 0.970360 0.335742
vt 0.947095 0.335742
vt 0.997448 0.608699
vt 0.031716 0.617873
vt 0.031716 0.774286
vt 0.000000 0.787476
vt 0.000000 0.604684
vt 0.581431 0.884887
vt 0.737224 0.884887
vt 0.750362 0.916729
vt 0.568293 0.916729
vt 0.141879 0.507272
vt 0.128742 0.475430
vt 0.847387 0.774286
vt 0.879104 0.787476
vt 0.297673 0.507272
vt 0.310810 0.475430
vt 0.847387 0.617873
vt 0.879104 0.604683
vt 0.407835 0.617873
vt 0.439552 0.604683
vt 0.737225 0.507272
vt 0.750362 0.475430
vt 0.407835 0.774286
vt 0.439552 0.787475
vt 0.581431 0.507272
vt 0.568294 0.475430
vt 0.297673 0.884887
vt 0.310810 0.916729
vt 0.471268 0.617873
vt 0.141879 0.884887
vt 0.128742 0.916729
vt 0.471268 0.774286
vt 0.050911 0.625855
vt 0.050911 0.766304
vt 0.589382 0.865616
vt 0.729274 0.865616
vt 0.149830 0.526543
vt 0.828192 0.766304
vt 0.289722 0.526543
vt 0.828192 0.625855
vt 0.388641 0.625855
vt 0.729274 0.526543
vt 0.388641 0.766304
vt 0.589382 0.526543
vt 0.289722 0.865616
vt 0.490463 0.625855
vt 0.149830 0.865616
vt 0.490463 0.766304
vt 0.997326 0.393694
vt 0.997326 0.258850
vt 0.999878 0.258850
vt 0.997448 0.606592
vt 0.994897 0.606592
vt 0.999878 0.393694
vt 0.994897 0.994239
vt 0.994897 0.866214
vt 0.997448 0.994239
vt 0.997448 0.734850
vt 0.997448 0.866214
vt 0.994897 0.734850
vt 0.999878 0.125581
vt 0.997327 0.000000
vt 0.999878 0.000000
vt 0.997326 0.125581
vt 0.999878 0.258850
vt 0.994897 0.475430
vt 0.202448 0.981679
vt 0.173527 0.981679
vt 0.173527 0.916729
vt 0.202448 0.916729
vt 0.391807 0.916729
vt 0.403763 0.916729
vt 0.403763 1.000000
vt 0.391806 1.000000
vt 0.057842 0.977411
vt 0.028921 0.977411
vt 0.028921 0.916729
vt 0.057842 0.916729
vt 0.343982 0.916729
vt 0.355938 0.916729
vt 0.355938 1.000000
vt 0.343982 1.000000
vt 0.559824 0.916729
vt 0.559824 0.945765
vt 0.550787 0.945765
vt 0.550787 0.916729
vt 0.057842 0.985631
vt 0.028921 0.985631
vt 0.144606 0.981679
vt 0.144606 0.916729
vt 0.367894 0.916729
vt 0.367894 1.000000
vt 0.086763 0.977411
vt 0.086763 0.916729
vt 0.284202 0.916729
vt 0.296158 0.916729
vt 0.296158 1.000000
vt 0.284202 1.000000
vt 0.541750 0.945765
vt 0.541750 0.916729
vt 0.086763 0.985631
vt 0.115684 0.925476
vt 0.144606 0.925476
vt 0.144606 0.982501
vt 0.115684 0.982501
vt 0.308114 0.916729
vt 0.308114 1.000000
vt 0.231369 0.979671
vt 0.202448 0.979671
vt 0.231369 0.916729
vt 0.379850 1.000000
vt 0.379850 0.916729
vt 0.523099 0.945765
vt 0.523099 0.916729
vt 0.532425 0.916729
vt 0.532425 0.945765
vt 0.115684 0.916729
vt 0.086763 0.925476
vt 0.086763 0.982501
vt 0.272246 0.916729
vt 0.272246 1.000000
vt 0.260290 0.979671
vt 0.260290 0.916729
vt 0.415719 1.000000
vt 0.415719 0.916729
vt 0.908025 0.896303
vt 0.936946 0.896303
vt 0.936946 0.979534
vt 0.908025 0.979534
vt 0.320070 1.000000
vt 0.320070 0.916729
vt 0.908025 0.813062
vt 0.936946 0.813062
vt 0.979886 0.892285
vt 0.967930 0.892285
vt 0.967930 0.809014
vt 0.979887 0.809014
vt 0.499329 0.945765
vt 0.499329 0.916729
vt 0.511214 0.916729
vt 0.511214 0.945765
vt 0.475479 0.945765
vt 0.475479 0.916729
vt 0.487404 0.916729
vt 0.487404 0.945765
vt 0.879103 0.896303
vt 0.879103 0.979534
vt 0.260290 1.000000
vt 0.976016 0.335742
vt 0.976016 0.418800
vt 0.947095 0.418800
vt 0.332026 1.000000
vt 0.332026 0.916729
vt 0.000000 0.916729
vt 0.028921 0.999504
vt 0.000000 0.999504
vt 0.463528 0.916729
vt 0.463528 0.945765
vt 0.451578 0.945765
vt 0.451578 0.916729
vt 0.439626 0.945765
vt 0.439626 0.916729
vt 0.965867 0.896303
vt 0.965867 0.979361
vt 0.936946 0.979361
vt 0.976656 0.392159
vt 0.988612 0.392159
vt 0.988612 0.475430
vt 0.976656 0.475430
vt 0.994788 0.896303
vt 0.994788 0.979077
vt 0.965867 0.979077
vt 0.427675 1.000000
vt 0.427675 0.916729
vt 0.427675 0.945765
vt 0.997326 0.184192
vt 0.997326 0.368100
vt 0.987812 0.368100
vt 0.987812 0.184192
vt 0.987812 0.000000
vt 0.958416 0.475430
vt 0.967930 0.475430
vt 0.967930 0.651513
vt 0.958415 0.651513
vt 0.967930 0.838376
vt 0.958416 0.838376
vt 0.958415 0.659338
vt 0.948901 0.659338
vt 0.958415 0.839175
vt 0.948901 0.839175
vt 0.994897 0.664501
vt 0.994897 0.851364
vt 0.985382 0.851364
vt 0.985382 0.664501
vt 0.985382 0.475430
vt 0.979086 0.333545
vt 0.970360 0.333545
vt 0.970360 0.168919
vt 0.979086 0.168919
vt 0.979086 0.000000
vt 0.985382 0.636912
vt 0.976656 0.636912
vt 0.985382 0.808281
vt 0.976656 0.808281
vt 0.976656 0.644089
vt 0.967930 0.644089
vt 0.976656 0.809014
vt 0.987812 0.158323
vt 0.979086 0.158323
vt 0.987812 0.331716
vt 0.979086 0.331716
vt 0.808396 0.475430
vt 0.800263 0.455719
vt 0.927462 0.328015
vt 0.947095 0.336180
vt 0.473547 0.139250
vt 0.493180 0.147415
vt 0.493180 0.328015
vt 0.473547 0.336180
vt 0.000000 0.336180
vt 0.019633 0.328015
vt 0.146831 0.455719
vt 0.138699 0.475430
vt 0.808396 0.000000
vt 0.800264 0.019711
vt 0.620378 0.019711
vt 0.612246 0.000000
vt 0.334848 0.475430
vt 0.326716 0.455719
vt 0.453914 0.328015
vt 0.334849 0.000000
vt 0.326716 0.019711
vt 0.146831 0.019711
vt 0.138699 0.000000
vt 0.453914 0.147415
vt 0.927462 0.147415
vt 0.947095 0.139250
vt 0.620378 0.455719
vt 0.612246 0.475430
vt 0.000000 0.139250
vt 0.019633 0.147415
vn 0.382700 0.923900 0.000000
vn 0.923900 0.382700 -0.000000
vn 0.923900 -0.382700 0.000000
vn 0.382700 -0.923900 0.000000
vn -0.382700 -0.923900 0.000000
vn -0.923900 -0.382700 0.000000
vn -0.382700 0.923900 -0.000000
vn -0.923900 0.382700 -0.000000
vn 0.000000 0.000000 -1.000000
vn 0.000000 0.000000 1.000000
vn -0.181700 -0.438700 -0.880100
vn -0.181700 -0.438700 0.880100
vn -0.438700 -0.181700 -0.880100
vn -0.438700 -0.181700 0.880100
vn -0.438700 0.181700 -0.880100
vn -0.438700 0.181700 0.880100
vn -0.181700 0.438700 -0.880100
vn -0.181700 0.438700 0.880100
vn 0.181700 0.438700 -0.880100
vn 0.181700 0.438700 0.880100
vn 0.438700 0.181700 -0.880100
vn 0.438700 0.181700 0.880100
vn 0.438700 -0.181700 -0.880100
vn 0.438700 -0.181700 0.880100
vn 0.181700 -0.438700 -0.880100
vn 0.181700 -0.438700 0.880100
vn -1.000000 0.000000 0.000000
vn 1.000000 0.000000 0.000000
vn 0.000000 -1.000000 0.000000
vn 0.000000 1.000000 0.000000
vn 0.707100 0.707100 0.000000
vn -0.707100 -0.707100 0.000000
vn -0.707100 0.707100 0.000000
vn 0.707100 -0.707100 0.000000
vn -0.018600 -0.007700 0.999800
vn 0.018600 -0.007700 0.999800
vn 0.007700 0.018600 -0.999800
vn 0.007700 0.018600 0.999800
vn -0.018600 0.007700 -0.999800
vn 0.007700 -0.018600 -0.999800
vn -0.007700 -0.018600 -0.999800
vn -0.018600 0.007700 0.999800
vn 0.007700 -0.018600 0.999800
vn -0.007700 -0.018600 0.999800
vn 0.018600 0.007700 -0.999800
vn 0.018600 0.007700 0.999800
vn -0.007700 0.018600 -0.999800
vn -0.007700 0.018600 0.999800
vn -0.018600 -0.007700 -0.999800
vn 0.018600 -0.007700 -0.999800
usemtl Material.005
s off
f 17/1/1 20/2/1 19/3/1 18/4/1
f 18/4/2 19/3/2 22/5/2 21/6/2
f 21/6/3 22/7/3 24/8/3 23/9/3
f 23/9/4 24/8/4 26/10/4 25/11/4
f 25/12/5 26/5/5 28/13/5 27/14/5
f 27/14/6 28/13/6 30/15/6 29/16/6
f 10/17/4 9/18/4 7/19/4
f 31/20/7 32/21/7 20/22/7 17/23/7
f 29/24/8 30/25/8 32/21/8 31/20/8
f 8/26/4 10/17/4 7/19/4
f 34/27/9 33/28/9 17/29/9 18/30/9
f 36/31/10 35/32/10 19/33/10 20/34/10
f 37/35/9 34/27/9 18/30/9 21/36/9
f 35/32/10 38/37/10 22/38/10 19/33/10
f 39/39/9 37/35/9 21/36/9 23/40/9
f 38/37/10 40/41/10 24/42/10 22/38/10
f 41/43/9 39/39/9 23/40/9 25/44/9
f 40/41/10 42/45/10 26/46/10 24/42/10
f 43/47/9 41/43/9 25/44/9 27/48/9
f 42/45/10 44/49/10 28/50/10 26/46/10
f 45/51/9 43/47/9 27/48/9 29/52/9
f 44/49/10 46/53/10 30/44/10 28/50/10
f 47/54/9 45/51/9 29/52/9 31/55/9
f 46/53/10 48/56/10 32/48/10 30/44/10
f 33/28/9 47/54/9 31/55/9 17/29/9
f 48/56/10 36/31/10 20/34/10 32/48/10
f 3/57/11 1/58/11 33/28/11 34/27/11
f 2/59/12 4/60/12 35/32/12 36/31/12
f 5/61/13 3/57/13 34/27/13 37/35/13
f 4/60/14 6/62/14 38/37/14 35/32/14
f 7/63/15 5/61/15 37/35/15 39/39/15
f 6/62/16 8/64/16 40/41/16 38/37/16
f 9/65/17 7/63/17 39/39/17 41/43/17
f 8/64/18 10/66/18 42/45/18 40/41/18
f 11/67/19 9/65/19 41/43/19 43/47/19
f 10/66/20 12/68/20 44/49/20 42/45/20
f 13/69/21 11/67/21 43/47/21 45/51/21
f 12/68/22 14/70/22 46/53/22 44/49/22
f 15/71/23 13/69/23 45/51/23 47/54/23
f 14/70/24 16/72/24 48/56/24 46/53/24
f 1/58/25 15/71/25 47/54/25 33/28/25
f 16/72/26 2/59/26 36/31/26 48/56/26
f 5/73/8 7/74/8 8/75/8
f 1/17/5 3/76/5 4/77/5
f 5/73/8 8/75/8 6/78/8
f 9/79/1 11/80/1 10/81/1
f 11/80/2 14/82/2 12/83/2
f 14/82/2 11/80/2 13/84/2
f 6/84/6 3/76/6 5/82/6
f 15/85/3 14/86/3 13/87/3
f 3/76/6 6/84/6 4/77/6
f 15/85/3 16/88/3 14/86/3
f 1/89/4 16/88/4 15/85/4
f 1/89/4 2/74/4 16/88/4
f 2/90/5 1/17/5 4/77/5
f 10/81/1 11/80/1 12/83/1
f 50/91/27 52/92/27 51/93/27 49/94/27
f 52/95/9 56/96/9 55/97/9 51/98/9
f 56/99/28 54/100/28 53/101/28 55/102/28
f 54/103/10 50/104/10 49/105/10 53/106/10
f 49/107/29 51/108/29 55/109/29 53/110/29
f 54/100/30 56/99/30 52/111/30 50/112/30
f 58/92/27 60/113/27 59/114/27 57/93/27
f 60/104/9 64/115/9 63/116/9 59/105/9
f 64/117/28 62/99/28 61/102/28 63/118/28
f 62/119/10 58/120/10 57/121/10 61/122/10
f 57/123/29 59/124/29 63/110/29 61/109/29
f 62/99/30 64/117/30 60/125/30 58/111/30
f 66/126/30 68/127/30 67/128/30 65/129/30
f 68/120/9 72/130/9 71/131/9 67/121/9
f 72/132/29 70/133/29 69/94/29 71/134/29
f 70/98/10 66/135/10 65/136/10 69/95/10
f 65/137/27 67/138/27 71/139/27 69/140/27
f 70/141/28 72/114/28 68/127/28 66/126/28
f 74/142/30 76/126/30 75/129/30 73/143/30
f 76/144/9 80/119/9 79/122/9 75/145/9
f 80/146/29 78/132/29 77/134/29 79/147/29
f 78/148/10 74/97/10 73/96/10 77/149/10
f 73/124/27 75/123/27 79/140/27 77/139/27
f 78/118/28 80/141/28 76/126/28 74/142/28
f 82/150/31 84/151/31 83/152/31 81/153/31
f 84/154/9 88/131/9 87/130/9 83/155/9
f 88/156/32 86/157/32 85/151/32 87/150/32
f 86/158/10 82/159/10 81/160/10 85/161/10
f 81/162/33 83/163/33 87/164/33 85/165/33
f 86/166/34 88/167/34 84/168/34 82/169/34
f 90/170/31 92/150/31 91/153/31 89/171/31
f 92/115/9 96/136/9 95/135/9 91/116/9
f 96/16/32 94/156/32 93/150/32 95/170/32
f 94/145/10 90/172/10 89/147/10 93/144/10
f 89/165/33 91/164/33 95/138/33 93/137/33
f 94/163/34 96/162/34 92/169/34 90/168/34
f 98/25/34 100/173/34 99/174/34 97/175/34
f 100/176/9 104/154/9 103/155/9 99/177/9
f 104/178/33 102/101/33 101/179/33 103/180/33
f 102/106/10 98/176/10 97/177/10 101/103/10
f 97/181/31 99/182/31 103/183/31 101/184/31
f 102/185/32 104/186/32 100/184/32 98/183/32
f 106/151/34 108/187/34 107/188/34 105/189/34
f 108/190/9 112/191/9 111/192/9 107/193/9
f 112/187/33 110/194/33 109/195/33 111/196/33
f 110/197/10 106/148/10 105/149/10 109/198/10
f 105/167/31 107/166/31 111/182/31 109/181/31
f 110/199/32 112/198/32 108/186/32 106/185/32
f 113/200/5 114/201/5 115/202/5 116/203/5
f 114/200/2 115/203/2 118/204/2 117/86/2
f 117/205/3 118/206/3 120/207/3 119/208/3
f 119/208/4 120/207/4 122/209/4 121/210/4
f 121/7/5 122/205/5 124/211/5 123/212/5
f 123/212/6 124/211/6 126/213/6 125/214/6
f 127/215/4 113/216/4 116/217/4 128/218/4
f 125/215/8 126/218/8 128/219/8 127/90/8
f 129/220/1 132/221/1 131/222/1 130/223/1
f 130/223/2 131/222/2 134/23/2 133/224/2
f 133/193/3 134/219/3 136/225/3 135/226/3
f 135/226/4 136/225/4 138/227/4 137/228/4
f 137/206/5 138/193/5 140/229/5 139/230/5
f 139/230/6 140/229/6 142/231/6 141/160/6
f 143/232/7 144/233/7 132/224/7 129/204/7
f 141/234/8 142/235/8 144/233/8 143/232/8
f 115/236/35 131/237/35 134/238/35 118/239/35
f 126/240/36 142/241/36 144/242/36 128/243/36
f 123/244/37 139/245/37 137/246/37 121/247/37
f 122/248/38 138/249/38 140/250/38 124/251/38
f 119/252/39 135/253/39 133/254/39 117/243/39
f 113/255/40 129/256/40 143/257/40 127/258/40
f 114/240/41 130/259/41 129/256/41 113/255/41
f 118/239/42 134/238/42 136/260/42 120/261/42
f 128/243/43 144/242/43 132/262/43 116/263/43
f 116/263/44 132/262/44 131/237/44 115/236/44
f 125/264/45 141/265/45 139/245/45 123/244/45
f 124/251/46 140/250/46 142/241/46 126/240/46
f 121/247/47 137/246/47 135/253/47 119/252/47
f 120/261/48 136/260/48 138/249/48 122/248/48
f 117/243/49 133/254/49 130/259/49 114/240/49
f 127/258/50 143/257/50 141/265/50 125/264/50
